<svg xmlns="http://www.w3.org/2000/svg" width="1480" height="1480" viewBox="0 0 1480 1480" font-family="Helvetica, Arial, sans-serif">
<rect width="1480" height="1480" fill="#ffffff"/>
<defs><marker id="a" markerWidth="13" markerHeight="13" refX="9" refY="4.5" orient="auto"><path d="M0,0 L10,4.5 L0,9 Z" fill="#555"/></marker><marker id="ar" markerWidth="14" markerHeight="14" refX="9" refY="4.5" orient="auto"><path d="M0,0 L10,4.5 L0,9 Z" fill="#c0392b"/></marker></defs>
<text x="800" y="58" text-anchor="middle" font-size="30" font-weight="bold" fill="#111">अमल · the writing-to-screen pipeline</text>
<text x="800" y="86" text-anchor="middle" font-size="15" fill="#777" font-style="italic">scaffolding the LLM uses, not LLM-based software — the local model enforces, Claude authors, code gates</text>
<rect x="490" y="112" width="620" height="84" rx="12" fill="#fff3cd" stroke="#999" stroke-width="1.5"/>
<text x="800.0" y="144" text-anchor="middle" font-size="20" font-weight="bold" fill="#1a1a1a">THE SEED  —  the scaffolding</text>
<text x="800.0" y="168" text-anchor="middle" font-size="13" fill="#333">want · wall · turn · beats   |   voice cards   |   held cards · canon</text>
<line x1="800" y1="196" x2="800" y2="236" stroke="#555" stroke-width="2.4" marker-end="url(#a)"/>
<rect x="490" y="238" width="620" height="84" rx="12" fill="#d6e8ff" stroke="#999" stroke-width="1.5"/>
<text x="800.0" y="270" text-anchor="middle" font-size="20" font-weight="bold" fill="#1a1a1a">AUTHOR</text>
<text x="800.0" y="294" text-anchor="middle" font-size="13" fill="#333">claude -p   (headless Claude, no API key)   —   drafts from the seed</text>
<line x1="800" y1="322" x2="800" y2="364" stroke="#555" stroke-width="2.4" marker-end="url(#a)"/>
<rect x="180" y="366" width="1240" height="536" rx="14" fill="#f4f4f4" stroke="#777" stroke-width="1.8"/>
<text x="800" y="400" text-anchor="middle" font-size="20" font-weight="bold" fill="#1a1a1a">GATE BATTERY   —   passes.py / run_scene.py</text>
<text x="800" y="422" text-anchor="middle" font-size="13" fill="#666" font-style="italic">repair(): the draft runs every box below — test → fix → re-test, pass by pass</text>
<text x="205" y="452" font-size="15" font-weight="bold" fill="#2a7d2a">twelve LLM-critic passes · claude -p   (each: test → fix → re-test)</text>
<rect x="205" y="462" width="285" height="84" rx="9" fill="#e2f0d9" stroke="#9aa" stroke-width="1.2"/>
<text x="347.5" y="496" text-anchor="middle" font-size="16" font-weight="bold" fill="#143">drama</text>
<text x="347.5" y="520" text-anchor="middle" font-size="12.5" fill="#555">want · wall · turn</text>
<rect x="506" y="462" width="285" height="84" rx="9" fill="#e2f0d9" stroke="#9aa" stroke-width="1.2"/>
<text x="648.5" y="496" text-anchor="middle" font-size="16" font-weight="bold" fill="#143">human-reaction</text>
<text x="648.5" y="520" text-anchor="middle" font-size="12.5" fill="#555">real, not a plot function</text>
<rect x="807" y="462" width="285" height="84" rx="9" fill="#e2f0d9" stroke="#9aa" stroke-width="1.2"/>
<text x="949.5" y="496" text-anchor="middle" font-size="16" font-weight="bold" fill="#143">voice</text>
<text x="949.5" y="520" text-anchor="middle" font-size="12.5" fill="#555">names hidden — who speaks?</text>
<rect x="1108" y="462" width="285" height="84" rx="9" fill="#e2f0d9" stroke="#9aa" stroke-width="1.2"/>
<text x="1250.5" y="496" text-anchor="middle" font-size="16" font-weight="bold" fill="#143">dialogue-realism</text>
<text x="1250.5" y="520" text-anchor="middle" font-size="12.5" fill="#555">messy · halting · true</text>
<rect x="205" y="562" width="285" height="84" rx="9" fill="#e2f0d9" stroke="#9aa" stroke-width="1.2"/>
<text x="347.5" y="596" text-anchor="middle" font-size="16" font-weight="bold" fill="#143">backstory</text>
<text x="347.5" y="620" text-anchor="middle" font-size="12.5" fill="#555">held cards stay buried</text>
<rect x="506" y="562" width="285" height="84" rx="9" fill="#e2f0d9" stroke="#9aa" stroke-width="1.2"/>
<text x="648.5" y="596" text-anchor="middle" font-size="16" font-weight="bold" fill="#143">heart</text>
<text x="648.5" y="620" text-anchor="middle" font-size="12.5" fill="#555">feeling earned, not told</text>
<rect x="807" y="562" width="285" height="84" rx="9" fill="#e2f0d9" stroke="#9aa" stroke-width="1.2"/>
<text x="949.5" y="596" text-anchor="middle" font-size="16" font-weight="bold" fill="#143">layers</text>
<text x="949.5" y="620" text-anchor="middle" font-size="12.5" fill="#555">surface shows AND withholds</text>
<rect x="1108" y="562" width="285" height="84" rx="9" fill="#e2f0d9" stroke="#9aa" stroke-width="1.2"/>
<text x="1250.5" y="596" text-anchor="middle" font-size="16" font-weight="bold" fill="#143">show-not-tell</text>
<text x="1250.5" y="620" text-anchor="middle" font-size="12.5" fill="#555">no state a camera can't see</text>
<rect x="205" y="662" width="285" height="84" rx="9" fill="#e2f0d9" stroke="#9aa" stroke-width="1.2"/>
<text x="347.5" y="696" text-anchor="middle" font-size="16" font-weight="bold" fill="#143">shrink-wrap</text>
<text x="347.5" y="720" text-anchor="middle" font-size="12.5" fill="#555">no skeletal / un-lived</text>
<rect x="506" y="662" width="285" height="84" rx="9" fill="#e2f0d9" stroke="#9aa" stroke-width="1.2"/>
<text x="648.5" y="696" text-anchor="middle" font-size="16" font-weight="bold" fill="#143">concreteness</text>
<text x="648.5" y="720" text-anchor="middle" font-size="12.5" fill="#555">physical · ~0% flowery</text>
<rect x="807" y="662" width="285" height="84" rx="9" fill="#e2f0d9" stroke="#9aa" stroke-width="1.2"/>
<text x="949.5" y="696" text-anchor="middle" font-size="16" font-weight="bold" fill="#143">clear-pane</text>
<text x="949.5" y="720" text-anchor="middle" font-size="12.5" fill="#555">intrigue in events, not syntax</text>
<rect x="1108" y="662" width="285" height="84" rx="9" fill="#e2f0d9" stroke="#9aa" stroke-width="1.2"/>
<text x="1250.5" y="696" text-anchor="middle" font-size="16" font-weight="bold" fill="#143">consistency</text>
<text x="1250.5" y="720" text-anchor="middle" font-size="12.5" fill="#555">no canon contradiction</text>
<text x="205" y="776" font-size="15" font-weight="bold" fill="#a85d00">the editorial floor — deterministic code gates  +  local critic (gemma3:27b)</text>
<rect x="205" y="788" width="285" height="84" rx="9" fill="#fdead0" stroke="#9aa" stroke-width="1.2"/>
<text x="347.5" y="822" text-anchor="middle" font-size="16" font-weight="bold" fill="#143">craftlint</text>
<text x="347.5" y="846" text-anchor="middle" font-size="12.5" fill="#555">em-dash · staccato — the GATE</text>
<rect x="506" y="788" width="285" height="84" rx="9" fill="#fdead0" stroke="#9aa" stroke-width="1.2"/>
<text x="648.5" y="822" text-anchor="middle" font-size="16" font-weight="bold" fill="#143">prose_gates</text>
<text x="648.5" y="846" text-anchor="middle" font-size="12.5" fill="#555">verbless fragments</text>
<rect x="807" y="788" width="285" height="84" rx="9" fill="#fdead0" stroke="#9aa" stroke-width="1.2"/>
<text x="949.5" y="822" text-anchor="middle" font-size="16" font-weight="bold" fill="#143">cultural_gate</text>
<text x="949.5" y="846" text-anchor="middle" font-size="12.5" fill="#555">ritual-doc check</text>
<rect x="1108" y="788" width="285" height="84" rx="9" fill="#e8def8" stroke="#9aa" stroke-width="1.2"/>
<text x="1250.5" y="822" text-anchor="middle" font-size="16" font-weight="bold" fill="#143">naturalness · gemma3</text>
<text x="1250.5" y="846" text-anchor="middle" font-size="12.5" fill="#555">'arranged for effect' (advisory)</text>
<line x1="800" y1="902" x2="800" y2="944" stroke="#555" stroke-width="2.4" marker-end="url(#a)"/>
<rect x="620" y="946" width="360" height="60" rx="12" fill="#ffe1e1" stroke="#999" stroke-width="1.5"/>
<text x="800.0" y="978" text-anchor="middle" font-size="19" font-weight="bold" fill="#1a1a1a">all passes clean?</text>
<path d="M 620,976 L 100,976 L 100,280 L 490,280" fill="none" stroke="#c0392b" stroke-width="2.6" marker-end="url(#ar)"/>
<text x="86" y="628" text-anchor="middle" font-size="14" font-weight="bold" fill="#c0392b" transform="rotate(-90 86 628)">FAIL → feed findings back · revise · re-gate</text>
<line x1="800" y1="1006" x2="800" y2="1050" stroke="#555" stroke-width="2.4" marker-end="url(#a)"/>
<text x="814" y="1032.0" font-size="13" fill="#555">clean   /   or  FAILED → needs a human</text>
<rect x="490" y="1052" width="620" height="88" rx="12" fill="#ffd9b0" stroke="#999" stroke-width="1.5"/>
<text x="800.0" y="1084" text-anchor="middle" font-size="20" font-weight="bold" fill="#1a1a1a">HUMAN  —  the stop</text>
<text x="800.0" y="1108" text-anchor="middle" font-size="13" fill="#333">review · approve   —   nothing auto-ships</text>
<line x1="800" y1="1140" x2="800" y2="1184" stroke="#555" stroke-width="2.4" marker-end="url(#a)"/>
<text x="814" y="1166.0" font-size="13" fill="#555">approved script</text>
<rect x="490" y="1186" width="620" height="100" rx="12" fill="#e8e0fb" stroke="#999" stroke-width="1.5"/>
<text x="800.0" y="1218" text-anchor="middle" font-size="20" font-weight="bold" fill="#1a1a1a">PRODUCTION — cinema/ engine</text>
<text x="800.0" y="1242" text-anchor="middle" font-size="13" fill="#333">audio (ElevenLabs) → frames (Gemini) → score</text>
<text x="800.0" y="1263" text-anchor="middle" font-size="13" fill="#333">→ assemble (master · title · transitions) → YouTube</text>
<text x="800" y="1418" text-anchor="middle" font-size="16" font-weight="bold" fill="#444">a scene exists only if it came through the battery   ·   the human is the stop</text>
</svg>